<svg width="24" height="24" viewBox="0 0 24 24" fill="none" xmlns="http://www.w3.org/2000/svg">
<path d="M16.2568 11.5949C16.2372 11.5916 16.22 11.5833 16.1996 11.5833C16.1964 11.5833 16.1947 11.5849 16.1915 11.5849C15.8208 11.5224 15.4429 11.4816 15.0543 11.4816H14.953C16.4543 10.6074 17.4707 8.96085 17.4707 7.07413C17.4707 4.27584 15.2404 2 12.4999 2C9.75862 2 7.52913 4.27669 7.52913 7.07413C7.52913 8.9608 8.5455 10.6074 10.0468 11.4816H9.94558C9.63373 11.4816 9.32842 11.5099 9.02637 11.5508C9.01902 11.5508 9.0133 11.5466 9.00596 11.5466C8.96024 11.5466 8.91616 11.5566 8.87697 11.5741C5.55447 12.1016 3 15.0333 3 18.5708V21.6667C3 21.8508 3.14613 22 3.32654 22H21.6735C21.8539 22 22 21.8508 22 21.6667V18.5708C22 15.0809 19.5147 12.179 16.2568 11.5949ZM16.2004 16.7407C16.647 16.7407 17.0103 17.1116 17.0103 17.5674C17.0103 18.0232 16.647 18.3941 16.2004 18.3941C15.7539 18.3941 15.3906 18.0232 15.3906 17.5674C15.3906 17.1116 15.7539 16.7407 16.2004 16.7407ZM8.18216 7.07418C8.18216 4.6441 10.1194 2.66672 12.4999 2.66672C14.8804 2.66672 16.8176 4.64421 16.8176 7.07418C16.8176 9.50415 14.8804 11.4816 12.4999 11.4816C10.1194 11.4816 8.18216 9.50415 8.18216 7.07418ZM21.3468 21.3334H3.65296V18.5709C3.65296 15.4718 5.81474 12.8783 8.67935 12.2784V14.1068C8.2132 14.1726 7.77073 14.3718 7.41398 14.6943C6.8964 15.1609 6.60008 15.8318 6.60008 16.5351V19.0059C6.60008 19.4176 6.92825 19.7526 7.33154 19.7526H7.69482V19.7776C7.69482 19.9618 7.84095 20.1109 8.02137 20.1109C8.20178 20.1109 8.34791 19.9618 8.34791 19.7776V19.0626C8.34791 18.8784 8.20178 18.7292 8.02137 18.7292C7.84095 18.7292 7.69482 18.8784 7.69482 19.0626V19.0851H7.33154C7.28827 19.0851 7.25317 19.0492 7.25317 19.0051V16.5343C7.25317 16.0218 7.46951 15.5326 7.84665 15.1926C8.22789 14.8484 8.72179 14.6943 9.23202 14.7593C10.1015 14.8701 10.7578 15.6634 10.7578 16.6043V19.0043C10.7578 19.0484 10.7227 19.0843 10.6794 19.0843H10.317V19.0618C10.317 18.8776 10.1708 18.7284 9.99042 18.7284C9.81 18.7284 9.66387 18.8776 9.66387 19.0618V19.7768C9.66387 19.9609 9.81 20.1101 9.99042 20.1101C10.1708 20.1101 10.317 19.9609 10.317 19.7768V19.7518H10.6794C11.0827 19.7518 11.4109 19.4168 11.4109 19.0051V16.6051C11.4109 15.3351 10.5194 14.2633 9.33325 14.1018V12.1785C9.53489 12.1585 9.73898 12.1469 9.94553 12.1469H15.0551C15.3327 12.1469 15.6053 12.1719 15.8731 12.2077V16.1136C15.2241 16.2661 14.7367 16.8586 14.7367 17.5669C14.7367 18.3903 15.3931 19.0603 16.1996 19.0603C17.0062 19.0603 17.6626 18.3903 17.6626 17.5669C17.6626 16.8578 17.1744 16.2653 16.5246 16.1136V12.3318C19.2855 13.011 21.3451 15.5468 21.3451 18.5701V21.3326L21.3468 21.3334Z" fill="#04394F" stroke="#04394F" stroke-width="0.8"/>
</svg>
