<svg width="21" height="22" viewBox="0 0 21 22" fill="none" xmlns="http://www.w3.org/2000/svg">
<path d="M14.2568 10.5949C14.2372 10.5916 14.22 10.5833 14.1996 10.5833C14.1964 10.5833 14.1947 10.5849 14.1915 10.5849C13.8208 10.5224 13.4429 10.4816 13.0543 10.4816H12.953C14.4543 9.60742 15.4707 7.96085 15.4707 6.07413C15.4707 3.27584 13.2404 1 10.4999 1C7.75862 1 5.52913 3.27669 5.52913 6.07413C5.52913 7.9608 6.5455 9.60735 8.04681 10.4816H7.94558C7.63373 10.4816 7.32842 10.5099 7.02637 10.5508C7.01902 10.5508 7.0133 10.5466 7.00596 10.5466C6.96024 10.5466 6.91616 10.5566 6.87697 10.5741C3.55447 11.1016 1 14.0333 1 17.5708V20.6667C1 20.8508 1.14613 21 1.32654 21H19.6735C19.8539 21 20 20.8508 20 20.6667V17.5708C20 14.0809 17.5147 11.179 14.2568 10.5949ZM14.2004 15.7407C14.647 15.7407 15.0103 16.1116 15.0103 16.5674C15.0103 17.0232 14.647 17.3941 14.2004 17.3941C13.7539 17.3941 13.3906 17.0232 13.3906 16.5674C13.3906 16.1116 13.7539 15.7407 14.2004 15.7407ZM6.18216 6.07418C6.18216 3.6441 8.11938 1.66672 10.4999 1.66672C12.8804 1.66672 14.8176 3.64421 14.8176 6.07418C14.8176 8.50415 12.8804 10.4816 10.4999 10.4816C8.11938 10.4816 6.18216 8.50415 6.18216 6.07418ZM19.3468 20.3334H1.65296V17.5709C1.65296 14.4718 3.81474 11.8783 6.67935 11.2784V13.1068C6.2132 13.1726 5.77073 13.3718 5.41398 13.6943C4.8964 14.1609 4.60008 14.8318 4.60008 15.5351V18.0059C4.60008 18.4176 4.92825 18.7526 5.33154 18.7526H5.69482V18.7776C5.69482 18.9618 5.84095 19.1109 6.02137 19.1109C6.20178 19.1109 6.34791 18.9618 6.34791 18.7776V18.0626C6.34791 17.8784 6.20178 17.7292 6.02137 17.7292C5.84095 17.7292 5.69482 17.8784 5.69482 18.0626V18.0851H5.33154C5.28827 18.0851 5.25317 18.0492 5.25317 18.0051V15.5343C5.25317 15.0218 5.46951 14.5326 5.84665 14.1926C6.22789 13.8484 6.72179 13.6943 7.23202 13.7593C8.10145 13.8701 8.7578 14.6634 8.7578 15.6043V18.0043C8.7578 18.0484 8.7227 18.0843 8.67943 18.0843H8.31696V18.0618C8.31696 17.8776 8.17083 17.7284 7.99042 17.7284C7.81 17.7284 7.66387 17.8776 7.66387 18.0618V18.7768C7.66387 18.9609 7.81 19.1101 7.99042 19.1101C8.17083 19.1101 8.31696 18.9609 8.31696 18.7768V18.7518H8.67943C9.08272 18.7518 9.41089 18.4168 9.41089 18.0051V15.6051C9.41089 14.3351 8.51943 13.2633 7.33325 13.1018V11.1785C7.53489 11.1585 7.73898 11.1469 7.94553 11.1469H13.0551C13.3327 11.1469 13.6053 11.1719 13.8731 11.2077V15.1136C13.2241 15.2661 12.7367 15.8586 12.7367 16.5669C12.7367 17.3903 13.3931 18.0603 14.1996 18.0603C15.0062 18.0603 15.6626 17.3903 15.6626 16.5669C15.6626 15.8578 15.1744 15.2653 14.5246 15.1136V11.3318C17.2855 12.011 19.3451 14.5468 19.3451 17.5701V20.3326L19.3468 20.3334Z" fill="white" stroke="white" stroke-width="0.8"/>
</svg>
