<svg width="22" height="18" viewBox="0 0 22 18" fill="none" xmlns="http://www.w3.org/2000/svg">
<path d="M20.6773 1.08873H13.032C12.8528 1.08873 12.7081 1.22537 12.7081 1.39451C12.7081 1.56364 12.8528 1.70029 13.032 1.70029H13.7812V10.3539L11.1328 6.16765C10.9911 5.87334 10.9172 5.54845 10.9172 5.2264V1.61156H11.3373C11.5165 1.61156 11.6612 1.47492 11.6612 1.30578C11.6612 1.13665 11.5165 1 11.3373 1H6.13487C5.95568 1 5.81092 1.13665 5.81092 1.30578C5.81092 1.47492 5.95568 1.61156 6.13487 1.61156H6.555V5.2264C6.555 5.54843 6.48009 5.87427 6.33937 6.16765L1.1227 14.4133C1.11662 14.4228 1.11156 14.4324 1.1065 14.4419C0.941485 14.7783 0.969832 15.1653 1.1804 15.4768C1.39198 15.7883 1.75237 15.9756 2.14518 15.9756H14.515C15.0789 16.6015 15.9171 17 16.8545 17C18.5492 17 19.9279 15.6985 19.9279 14.099L19.9269 1.70036H20.676C20.8552 1.70036 21 1.56372 21 1.39458C21.001 1.2264 20.8555 1.08873 20.6773 1.08873ZM6.90415 6.46756C6.91022 6.458 6.91529 6.44845 6.92035 6.43889C7.10561 6.06144 7.20278 5.6429 7.20278 5.22724V1.61142H10.2692V5.22626C10.2692 5.64097 10.3674 6.06048 10.5516 6.43791C10.5567 6.44747 10.5617 6.45703 10.5678 6.46658L12.2311 9.09533L5.24074 9.09629L6.90415 6.46756ZM2.14516 15.3639C1.97205 15.3639 1.82019 15.2855 1.72705 15.1479C1.63695 15.0141 1.62278 14.8565 1.68858 14.7112L4.85425 9.70787H12.6169L13.7811 11.5473V14.0988C13.7811 14.5527 13.8955 14.9808 14.0929 15.364L2.14516 15.3639ZM19.2791 14.0987C19.2791 15.361 18.1909 16.3882 16.8535 16.3882C15.5162 16.3882 14.4279 15.361 14.4279 14.0987L14.4289 11.4098H16.1135C16.2927 11.4098 16.4375 11.2731 16.4375 11.104C16.4375 10.9348 16.2927 10.7982 16.1135 10.7982H14.4289V9.52348H15.3138C15.4929 9.52348 15.6377 9.38683 15.6377 9.21769C15.6377 9.04856 15.4929 8.91191 15.3138 8.91191H14.4289V7.63719H16.1135C16.2927 7.63719 16.4375 7.50054 16.4375 7.33141C16.4375 7.16227 16.2927 7.02562 16.1135 7.02562H14.4289V5.7509H15.3138C15.4929 5.7509 15.6377 5.61426 15.6377 5.44512C15.6377 5.27598 15.4929 5.13934 15.3138 5.13934H14.4289V3.86462H16.1135C16.2927 3.86462 16.4375 3.72797 16.4375 3.55884C16.4375 3.3897 16.2927 3.25305 16.1135 3.25305H14.4289V1.70024H19.2802L19.2791 14.0987Z" fill="#04394F" stroke="white" stroke-width="0.5"/>
</svg>
