<svg width="20" height="20" viewBox="0 0 20 20" fill="none" xmlns="http://www.w3.org/2000/svg">
<path d="M14 19.32V19.9867H14.6667V19.32H14ZM0.666667 19.32H0V19.9867H0.666667V19.32ZM19.3333 19.3333V20H20V19.3333H19.3333ZM10.6667 4.664C10.666 5.54759 10.3145 6.39475 9.68941 7.0193C9.06437 7.64384 8.21693 7.99467 7.33333 7.99467V9.328C9.91067 9.328 12 7.24 12 4.664H10.6667ZM7.33333 7.99467C6.44974 7.99467 5.6023 7.64384 4.97725 7.0193C4.35221 6.39475 4.00071 5.54759 4 4.664H2.66667C2.66737 5.90122 3.15935 7.08751 4.03444 7.96211C4.90954 8.8367 6.09612 9.328 7.33333 9.328V7.99467ZM4 4.664C4.00071 3.78041 4.35221 2.93325 4.97725 2.3087C5.6023 1.68416 6.44974 1.33333 7.33333 1.33333V0C6.09612 -2.01994e-07 4.90954 0.491299 4.03444 1.36589C3.15935 2.24049 2.66737 3.42678 2.66667 4.664H4ZM7.33333 1.33333C8.21693 1.33333 9.06437 1.68416 9.68941 2.3087C10.3145 2.93325 10.666 3.78041 10.6667 4.664H12C11.9993 3.42678 11.5073 2.24049 10.6322 1.36589C9.75713 0.491299 8.57055 -2.01994e-07 7.33333 0V1.33333ZM14 18.6533H0.666667V19.9867H14V18.6533ZM1.33333 19.32V16.6587H0V19.3213L1.33333 19.32ZM4.66667 13.3253H10V11.992H4.66667V13.3253ZM13.3333 16.6587V19.3213H14.6667V16.6587H13.3333ZM10 13.3253C10.8841 13.3253 11.7319 13.6765 12.357 14.3016C12.9821 14.9268 13.3333 15.7746 13.3333 16.6587H14.6667C14.6667 15.421 14.175 14.234 13.2998 13.3588C12.4247 12.4837 11.2377 11.992 10 11.992V13.3253ZM1.33333 16.6587C1.33333 15.7746 1.68452 14.9268 2.30964 14.3016C2.93477 13.6765 3.78261 13.3253 4.66667 13.3253V11.992C3.42899 11.992 2.242 12.4837 1.36683 13.3588C0.491665 14.234 0 15.421 0 16.6587H1.33333ZM18.6667 17.3333V19.3333H20V17.3333H18.6667ZM19.3333 18.6667H16V20H19.3333V18.6667ZM16 14.6667C16.7072 14.6667 17.3855 14.9476 17.8856 15.4477C18.3857 15.9478 18.6667 16.6261 18.6667 17.3333H20C20 16.2725 19.5786 15.2551 18.8284 14.5049C18.0783 13.7548 17.0609 13.3333 16 13.3333V14.6667ZM15.3333 10.6667C14.8029 10.6667 14.2942 10.456 13.9191 10.0809C13.544 9.70581 13.3333 9.1971 13.3333 8.66667H12C12 9.55072 12.3512 10.3986 12.9763 11.0237C13.6014 11.6488 14.4493 12 15.3333 12V10.6667ZM17.3333 8.66667C17.3333 9.1971 17.1226 9.70581 16.7475 10.0809C16.3725 10.456 15.8638 10.6667 15.3333 10.6667V12C16.2174 12 17.0652 11.6488 17.6904 11.0237C18.3155 10.3986 18.6667 9.55072 18.6667 8.66667H17.3333ZM15.3333 6.66667C15.8638 6.66667 16.3725 6.87738 16.7475 7.25245C17.1226 7.62753 17.3333 8.13623 17.3333 8.66667H18.6667C18.6667 7.78261 18.3155 6.93477 17.6904 6.30964C17.0652 5.68452 16.2174 5.33333 15.3333 5.33333V6.66667ZM15.3333 5.33333C14.4493 5.33333 13.6014 5.68452 12.9763 6.30964C12.3512 6.93477 12 7.78261 12 8.66667H13.3333C13.3333 8.13623 13.544 7.62753 13.9191 7.25245C14.2942 6.87738 14.8029 6.66667 15.3333 6.66667V5.33333Z" fill="white"/>
</svg>
